<svg aria-hidden="true" style="position: absolute; width: 0; height: 0; overflow: hidden;" version="1.1" xmlns="http://www.w3.org/2000/svg" xmlns:xlink="http://www.w3.org/1999/xlink">
<defs>
<symbol id="icon-adapt-d" viewBox="0 0 31 32">
<path fill="#ff6b09" style="fill: var(--color1, #ff6b09)" d="M7.953 23.273h12.362c0.062-1.41-0.040-3.749-0.906-4.862l-0.031-0.040-1.894-0.951c0.041-0.139 0.062-0.266 0.070-0.359 0.002-0.019 0.003-0.041 0.003-0.063 0-0.090-0.018-0.176-0.051-0.254l0.002 0.004c-0.312-0.748-0.974-1.141-1.337-1.309 0.111-0.223 0.182-0.463 0.217-0.708 0.21-0.060 0.372-0.226 0.425-0.435l0.001-0.004 0.221-0.898c0.012-0.044 0.018-0.095 0.018-0.147 0-0.116-0.033-0.225-0.090-0.318l0.002 0.003c-0.037-0.060-0.082-0.111-0.134-0.153l-0.001-0.001c0.623-1.416-0.421-2.751-0.478-2.822-1.13-1.222-2.559-0.994-2.634-0.98-2.061 0.432-2.857 2.011-2.408 3.864-0.097 0.107-0.157 0.251-0.157 0.408 0 0.052 0.006 0.102 0.019 0.15l-0.001-0.004 0.222 0.899c0.054 0.216 0.218 0.378 0.422 0.437 0.066 0.456 0.256 0.86 0.535 1.185l-0.003-0.003v0.712c-2.958 1.515-1.084 0.548-3.454 1.748-0.005 0.022-1.112 1.199-0.948 4.688l0.010 0.213zM19.885 22.826h-2.034v-0.855l1.346-3.081c0.674 1.119 0.699 3.255 0.689 3.935zM17.109 17.023c-0.079 0.902-0.573 0.63-0.878 1.324-0.24-0.264-0.313-0.581-0.248-0.92 0.117-0.622-0.263-0.807-0.169-1.461l0.014-0.015v-0.002c0.008-0.009 0.083-0.098 0.105-0.126 0.805 0.351 1.193 1.003 1.177 1.2zM12.79 16.314c0.366 0.258 0.821 0.413 1.312 0.413 0.47 0 0.906-0.141 1.269-0.383l-0.008 0.005c0.052 0.514 0.252 0.617 0.182 0.995-0.012 0.059-0.021 0.13-0.025 0.203l-0 0.005-1.386 1.562-1.771-1.997 0.428-0.223v-0.579zM12.233 14.403v-2.387c0.215-0.399 0.51-0.688 0.875-0.862 0.978 0.554 2.105 1.38 2.86 2.212-0.001 1.059 0.003 1.062-0.004 1.149l-0 0.006c-0.059 0.962-0.85 1.759-1.864 1.759-0.986 0-1.804-0.774-1.863-1.768-0.002-0.028-0.003-0.061-0.003-0.093 0-0.005 0-0.010 0-0.015v0.001zM11.957 17.332l2.177 2.454 1.462-1.647c0.033 0.096 0.080 0.187 0.134 0.275l-1.595 1.995-2.378-2.975 0.202-0.102zM16.414 14.043v-0.691l0.166-0.191c0.009 0.35 0.047-0.063-0.166 0.882zM13.798 9.415c0.089 0.006 1.276-0.181 2.215 0.833 0.037 0.046 0.801 1.031 0.494 2.108-0.105-0.479-0.288-1.094-0.578-1.386l-0.316 0.315c0.286 0.289 0.474 1.171 0.545 1.628-1.311-1.372-3.002-2.24-3.026-2.254-0.085 0.053-0.8 0.189-1.32 1.199l-0.025 0.048v0.742l-0.066 0.001c-0.33-1.594 0.302-2.861 2.076-3.233zM11.675 13.108l0.112 0.456v0.479l-0.187-0.757c-0.028-0.113 0.056-0.155 0.074-0.178zM11.347 17.638l2.786 3.485 1.885-2.358c0.205 0.184 0.304 0.21 0.738 0.433l-0.146-0.498c-0.037-0.126 0.11-0.329 0.199-0.422 0.2-0.11 0.364-0.262 0.485-0.446l0.003-0.005 1.538 0.772-1.432 3.277v0.949h-6.542v-0.949l-1.432-3.277 1.917-0.962zM9.071 18.891l1.346 3.080v0.854h-2.035c-0.010-0.68 0.015-2.815 0.689-3.934z"></path>
<path fill="none" stroke="#ff6b09" style="stroke: var(--color1, #ff6b09)" stroke-linejoin="miter" stroke-linecap="butt" stroke-miterlimit="4" stroke-width="0.6154" d="M31.077 4.615v-4.308h-30.769v31.385h30.769v-4.308"></path>
</symbol>
<symbol id="icon-finance-d" viewBox="0 0 31 32">
<path fill="#ff6b09" style="fill: var(--color1, #ff6b09)" d="M7.942 14.958c0 0.165-0.25 0.165-0.25 0 0-3.502 2.84-6.342 6.342-6.342 3.504 0 6.342 2.84 6.342 6.342 0 0.165-0.249 0.165-0.249 0 0-2.367-3.89-2.369-3.89 0 0 0.165-0.256 0.165-0.256 0 0-2.361-3.896-2.361-3.896 0 0 0.165-0.256 0.165-0.256 0 0-2.357-3.888-2.373-3.888 0zM11.853 14.038c0.068-1.362 0.282-2.584 0.593-3.517 0.249-0.742 0.563-1.304 0.919-1.62-2.674 0.292-4.839 2.319-5.323 4.949 0.921-1.328 3.047-1.222 3.811 0.189zM15.963 13.977c-0.069-1.31-0.277-2.482-0.577-3.376-0.772-2.314-1.931-2.314-2.704 0-0.299 0.894-0.506 2.066-0.576 3.376 0.831-1.412 3.026-1.412 3.857 0zM20.027 13.85c-0.482-2.629-2.647-4.657-5.323-4.949 0.358 0.316 0.671 0.879 0.919 1.62 0.311 0.933 0.526 2.154 0.593 3.517 0.768-1.418 2.9-1.502 3.811-0.189zM13.202 17.86v-1.288c-0.232 0.154-0.414 0.392-0.414 0.683 0 0.283 0.186 0.47 0.414 0.605zM13.452 18.26c-0.445-0.204-0.913-0.442-0.913-1.005 0-0.581 0.442-0.872 0.913-1.089v2.094zM14.867 19.803v1.303c0.235-0.156 0.419-0.395 0.419-0.686 0-0.286-0.189-0.479-0.419-0.617zM14.619 19.402c0.446 0.206 0.918 0.452 0.918 1.018 0 0.582-0.445 0.873-0.918 1.089v-2.107z"></path>
<path fill="#ff6b09" style="fill: var(--color1, #ff6b09)" d="M14.867 15.106c1.024 0.237 2.077 1.003 2.077 2.149 0 0.981-1.658 0.945-1.658 0 0-0.292-0.184-0.532-0.419-0.686v1.833c0.948 0.31 2.080 0.865 2.080 2.018 0 1.147-1.053 1.912-2.080 2.147-0.004 1.091-1.662 1.090-1.665-0.002-0.584-0.135-1.092-0.407-1.458-0.768-0.385-0.38-0.612-0.858-0.612-1.378 0-0.966 1.656-0.966 1.656 0 0 0.289 0.182 0.527 0.415 0.682v-1.831c-0.94-0.304-2.078-0.876-2.078-2.018 0-1.147 1.053-1.912 2.078-2.147 0.004-1.092 1.662-1.090 1.665 0.002zM13.452 15.109v0.199c-0.975 0.193-2.080 0.818-2.080 1.943 0 1.083 1.213 1.568 2.080 1.836v2.42c-0.469-0.214-0.914-0.503-0.914-1.087 0-0.638-1.159-0.638-1.159 0 0 0.451 0.201 0.867 0.539 1.199 0.43 0.425 0.951 0.628 1.533 0.743v0.201c0 0.768 1.166 0.768 1.166 0v-0.199c0.978-0.195 2.078-0.819 2.078-1.944 0-1.093-1.21-1.563-2.078-1.837v-2.418c0.47 0.214 0.918 0.503 0.918 1.090 0 0.622 1.157 0.647 1.157 0 0-1.125-1.099-1.75-2.075-1.945v-0.201c0-0.768-1.166-0.768-1.166 0z"></path>
<path fill="none" stroke="#ff6b09" style="stroke: var(--color1, #ff6b09)" stroke-linejoin="miter" stroke-linecap="butt" stroke-miterlimit="4" stroke-width="0.6154" d="M31.077 4.615v-4.308h-30.769v31.385h30.769v-4.308"></path>
</symbol>
<symbol id="icon-modern-d" viewBox="0 0 31 32">
<path fill="#ff6b09" style="fill: var(--color1, #ff6b09)" d="M20.406 8.558h-7.116c-0.464 0.001-0.839 0.376-0.84 0.84v2.946l-5.287 2.219c-0.063 0.027-0.106 0.088-0.106 0.159 0 0.062 0.033 0.117 0.083 0.147l0.001 0 0.674 0.403v4.3c-0.348 0.082-0.603 0.389-0.603 0.756v0.415c0 0.095 0.077 0.172 0.172 0.172h1.207c0.095 0 0.172-0.077 0.172-0.172v0-0.414c0-0.369-0.259-0.677-0.604-0.756v-4.094l0.533 0.319c-0.017 0.123-0.002-0.214-0.008 2.002 0 0.729 1.866 1.119 3.765 1.141v3.356c0 0.463 0.376 0.839 0.839 0.839 0 0 0 0 0.001 0h7.116c0.463-0 0.839-0.376 0.839-0.839v-0c0 0.023-0.001-0.711 0-12.898 0-0.457-0.378-0.84-0.839-0.84zM8.419 20.328v0.242h-0.862v-0.242c0-0.238 0.193-0.433 0.43-0.433s0.432 0.194 0.432 0.433zM20.406 22.79h-7.116c-0.171 0-0.322-0.086-0.411-0.218-0.053-0.077-0.085-0.173-0.085-0.276 0-0 0-0.001 0-0.001v0-1.163h8.105v1.164c0 0.27-0.225 0.494-0.494 0.494zM20.9 20.788h-8.105v-1.847c0.927-0.010 3.767-0.215 3.767-1.142-0.001-1.392 0.002-1.957-0.004-2.005l1.546-0.926c0.050-0.031 0.083-0.085 0.083-0.148 0-0.071-0.043-0.132-0.104-0.158l-0.001-0-5.286-2.219v-1.438h8.105v9.883zM12.622 16.656c-0.955 0-2.794 0.123-3.592 0.645 0.005-1.595-0.055-1.491 0.141-1.627 0.496-0.365 1.916-0.62 3.451-0.62 0.67 0 3.595 0.184 3.595 0.803v1.444c-0.806-0.526-2.636-0.645-3.595-0.645zM12.794 9.398c0-0.273 0.222-0.495 0.495-0.495 0 0 0 0 0 0h7.116c0.273 0 0.494 0.225 0.494 0.495v1.163h-8.105v-1.163zM12.622 12.644l5.012 2.104-1.242 0.743c-0.66-0.655-2.844-0.782-3.77-0.782-0.927 0-3.111 0.127-3.77 0.782l-1.242-0.743 5.012-2.104zM9.030 17.799c0-0.279 1.234-0.799 3.592-0.799 2.36 0 3.595 0.52 3.595 0.799s-1.235 0.799-3.595 0.799c-2.358 0-3.592-0.52-3.592-0.799z"></path>
<path fill="#ff6b09" style="fill: var(--color1, #ff6b09)" d="M16.848 21.392c-0.314 0-0.569 0.255-0.569 0.57s0.255 0.57 0.569 0.57 0.569-0.255 0.569-0.57c0-0.314-0.255-0.569-0.569-0.569zM16.848 22.186c-0.118-0.008-0.211-0.106-0.211-0.225s0.093-0.217 0.21-0.225l0.001-0c0.121 0.005 0.217 0.104 0.217 0.225s-0.096 0.22-0.216 0.225h-0zM17.505 9.56h-1.314v0.344h1.314v-0.344z"></path>
<path fill="none" stroke="#ff6b09" style="stroke: var(--color1, #ff6b09)" stroke-linejoin="miter" stroke-linecap="butt" stroke-miterlimit="4" stroke-width="0.6154" d="M31.077 4.615v-4.308h-30.769v31.385h30.769v-4.308"></path>
</symbol>
<symbol id="icon-finance" viewBox="0 0 31 32">
<path fill="#ff6b09" style="fill: var(--color1, #ff6b09)" d="M6.947 14.567c0 0.227-0.344 0.227-0.344 0 0-4.818 3.908-8.725 8.725-8.725 4.82 0 8.725 3.908 8.725 8.725 0 0.227-0.342 0.227-0.342 0 0-3.257-5.351-3.259-5.351 0 0 0.227-0.352 0.227-0.352 0 0-3.248-5.359-3.248-5.359 0 0 0.227-0.352 0.227-0.352 0 0-3.242-5.349-3.265-5.349 0zM12.327 13.302c0.093-1.874 0.388-3.556 0.816-4.839 0.342-1.019 0.775-1.794 1.265-2.228-3.678 0.401-6.657 3.19-7.322 6.807 1.267-1.827 4.191-1.681 5.242 0.259zM17.981 13.218c-0.095-1.803-0.381-3.415-0.793-4.645-1.063-3.182-2.656-3.182-3.72 0-0.412 1.23-0.696 2.842-0.793 4.645 1.143-1.942 4.163-1.942 5.306 0zM23.571 13.042c-0.663-3.617-3.642-6.406-7.322-6.807 0.493 0.434 0.923 1.209 1.265 2.228 0.429 1.284 0.723 2.964 0.816 4.839 1.056-1.95 3.99-2.066 5.242-0.26zM14.183 18.558v-1.771c-0.319 0.212-0.57 0.54-0.57 0.94 0 0.389 0.255 0.647 0.57 0.832zM14.527 19.109c-0.612-0.28-1.257-0.608-1.257-1.382 0-0.799 0.608-1.199 1.257-1.498v2.88zM16.473 21.232v1.792c0.324-0.214 0.577-0.544 0.577-0.943 0-0.394-0.26-0.659-0.577-0.849zM16.132 20.68c0.614 0.284 1.263 0.622 1.263 1.401 0 0.801-0.612 1.201-1.263 1.497v-2.898z"></path>
<path fill="#ff6b09" style="fill: var(--color1, #ff6b09)" d="M16.473 14.771c1.409 0.325 2.857 1.38 2.857 2.955 0 1.35-2.281 1.3-2.281 0 0-0.401-0.253-0.731-0.576-0.943v2.521c1.304 0.427 2.861 1.191 2.861 2.776 0 1.578-1.448 2.631-2.861 2.954-0.006 1.502-2.286 1.5-2.29-0.002-0.803-0.185-1.501-0.56-2.006-1.056-0.529-0.523-0.842-1.18-0.842-1.895 0-1.329 2.278-1.329 2.278 0 0 0.397 0.251 0.725 0.57 0.937v-2.519c-1.294-0.418-2.859-1.205-2.859-2.776 0-1.578 1.448-2.63 2.859-2.954 0.006-1.501 2.286-1.499 2.291 0.002zM14.527 14.774v0.274c-1.341 0.266-2.861 1.125-2.861 2.673 0 1.489 1.668 2.157 2.861 2.525v3.328c-0.645-0.295-1.257-0.692-1.257-1.495 0-0.877-1.594-0.877-1.594 0 0 0.62 0.276 1.193 0.742 1.65 0.591 0.585 1.308 0.863 2.109 1.022v0.276c0 1.056 1.605 1.056 1.605 0v-0.274c1.345-0.267 2.859-1.126 2.859-2.673 0-1.503-1.665-2.15-2.859-2.527v-3.326c0.647 0.295 1.263 0.692 1.263 1.499 0 0.855 1.592 0.89 1.592 0 0-1.547-1.512-2.408-2.855-2.675v-0.276c0-1.056-1.605-1.056-1.605 0z"></path>
<path fill="none" stroke="#ff6b09" style="stroke: var(--color1, #ff6b09)" stroke-linejoin="miter" stroke-linecap="butt" stroke-miterlimit="4" stroke-width="1.0159" d="M30.387 4.945v-4.183h-29.879v30.476h29.879v-4.183"></path>
</symbol>
<symbol id="icon-modern" viewBox="0 0 31 32">
<path fill="#ff6b09" style="fill: var(--color1, #ff6b09)" d="M24.717 5.25h-10.248c-0.668 0.001-1.209 0.542-1.209 1.21v4.241l-7.613 3.196c-0.090 0.038-0.153 0.126-0.153 0.229 0 0.090 0.048 0.168 0.119 0.212l0.001 0.001 0.971 0.581v6.192c-0.501 0.118-0.869 0.561-0.869 1.089v0.597c0 0.137 0.111 0.248 0.248 0.248h1.739c0.137 0 0.248-0.111 0.248-0.248v-0.597c-0.001-0.529-0.369-0.971-0.862-1.087l-0.008-0.002v-5.896l0.768 0.459c-0.023 0.177-0.003-0.308-0.011 2.883 0 1.049 2.687 1.611 5.421 1.643v4.832c0 0.667 0.541 1.208 1.208 1.208 0 0 0 0 0.001 0h10.248c0.667-0.001 1.208-0.541 1.209-1.209v-0c0 0.034-0.002-1.023 0-18.573 0-0.658-0.544-1.21-1.209-1.21zM7.456 22.201v0.349h-1.243v-0.349c0-0.344 0.278-0.623 0.62-0.623 0.344 0 0.623 0.279 0.623 0.623zM24.717 25.745h-10.248c-0.246 0-0.463-0.124-0.591-0.313-0.076-0.111-0.122-0.249-0.122-0.397 0-0 0-0 0-0v0-1.675h11.671v1.676c0 0.388-0.324 0.711-0.711 0.711zM25.428 22.862h-11.672v-2.659c1.335-0.015 5.425-0.309 5.425-1.645-0.002-2.005 0.003-2.818-0.007-2.887l2.226-1.334c0.072-0.044 0.12-0.123 0.12-0.212 0-0.102-0.062-0.19-0.15-0.228l-0.002-0.001-7.612-3.195v-2.071h11.672v14.231zM13.508 16.913c-1.376 0-4.023 0.178-5.173 0.929 0.007-2.297-0.080-2.148 0.203-2.343 0.715-0.526 2.758-0.894 4.97-0.894 0.965 0 5.176 0.266 5.176 1.157v2.080c-1.161-0.758-3.795-0.929-5.176-0.929zM13.756 6.46c0-0.393 0.32-0.713 0.713-0.713h10.248c0.393 0 0.711 0.324 0.711 0.713v1.675h-11.671v-1.675zM13.507 11.136l7.218 3.029-1.788 1.070c-0.951-0.943-4.096-1.126-5.429-1.126-1.335 0-4.48 0.183-5.429 1.126l-1.788-1.070 7.218-3.029zM8.335 18.558c0-0.401 1.777-1.15 5.173-1.15 3.398 0 5.176 0.749 5.176 1.15s-1.778 1.15-5.176 1.15c-3.397 0-5.173-0.749-5.173-1.15z"></path>
<path fill="#ff6b09" style="fill: var(--color1, #ff6b09)" d="M19.593 23.732c-0.452 0-0.82 0.368-0.82 0.82s0.368 0.82 0.82 0.82c0.452 0 0.82-0.368 0.82-0.82s-0.368-0.82-0.82-0.82zM19.593 24.877c-0.004 0-0.008 0-0.012 0-0.18 0-0.325-0.146-0.325-0.325s0.146-0.325 0.325-0.325c0.005 0 0.010 0 0.014 0l-0.001-0c0.174 0.008 0.311 0.15 0.311 0.325s-0.139 0.318-0.312 0.325l-0.001 0zM20.538 6.693h-1.892v0.496h1.892v-0.496z"></path>
<path fill="none" stroke="#ff6b09" style="stroke: var(--color1, #ff6b09)" stroke-linejoin="miter" stroke-linecap="butt" stroke-miterlimit="4" stroke-width="1.0159" d="M30.387 4.945v-4.183h-29.879v30.476h29.879v-4.183"></path>
</symbol>
<symbol id="icon-adapt" viewBox="0 0 31 32">
<path fill="#ff6b09" style="fill: var(--color1, #ff6b09)" d="M7.046 26.005h17.006c0.084-1.939-0.054-5.157-1.247-6.689l-0.043-0.055-2.606-1.308c0.057-0.19 0.085-0.366 0.096-0.494 0.003-0.026 0.004-0.056 0.004-0.087 0-0.124-0.025-0.242-0.070-0.35l0.002 0.006c-0.43-1.029-1.339-1.57-1.84-1.801 0.152-0.307 0.25-0.637 0.298-0.974 0.29-0.083 0.511-0.311 0.584-0.598l0.001-0.006 0.304-1.235c0.054-0.218 0.020-0.444-0.096-0.636-0.051-0.083-0.113-0.153-0.185-0.211l-0.002-0.001c0.857-1.947-0.579-3.784-0.657-3.881-1.556-1.682-3.521-1.367-3.624-1.349-2.836 0.593-3.93 2.767-3.312 5.316-0.183 0.203-0.26 0.485-0.192 0.762l0.305 1.237c0.074 0.297 0.3 0.521 0.582 0.601 0.090 0.628 0.352 1.183 0.735 1.63l-0.004-0.004v0.979c-4.069 2.084-1.491 0.754-4.752 2.404-0.007 0.030-1.53 1.65-1.304 6.45l0.014 0.293zM23.461 25.39h-2.799v-1.175l1.851-4.238c0.927 1.539 0.962 4.478 0.948 5.413zM19.641 17.407c-0.108 1.24-0.789 0.866-1.209 1.821-0.33-0.363-0.43-0.799-0.34-1.265 0.16-0.856-0.363-1.11-0.234-2.010l0.020-0.021v-0.003c0.011-0.012 0.114-0.135 0.144-0.174 1.107 0.483 1.641 1.381 1.619 1.651zM13.701 16.432c0.503 0.355 1.129 0.568 1.805 0.568 0.646 0 1.247-0.194 1.747-0.528l-0.012 0.007c0.071 0.707 0.347 0.849 0.249 1.369-0.018 0.096-0.028 0.192-0.034 0.285l-1.906 2.149-2.437-2.747 0.588-0.307v-0.796zM12.935 13.803v-3.283c0.297-0.549 0.701-0.946 1.204-1.185 1.346 0.762 2.895 1.898 3.934 3.043-0.001 1.457 0.005 1.46-0.005 1.58l-0.001 0.008c-0.081 1.323-1.168 2.419-2.564 2.419-1.356 0-2.482-1.065-2.564-2.433-0.003-0.040-0.005-0.086-0.005-0.133 0-0.005 0-0.011 0-0.016v0.001zM12.555 17.833l2.994 3.376 2.010-2.266c0.046 0.132 0.111 0.258 0.184 0.378l-2.194 2.744-3.273-4.092 0.278-0.14zM18.685 13.307v-0.951l0.229-0.262c0.013 0.482 0.065-0.087-0.229 1.213zM15.087 6.942c0.122 0.008 1.755-0.249 3.047 1.145 0.051 0.064 1.102 1.418 0.68 2.9-0.145-0.66-0.396-1.505-0.795-1.908l-0.435 0.434c0.393 0.398 0.651 1.611 0.75 2.239-1.803-1.887-4.13-3.082-4.162-3.102-0.117 0.073-1.101 0.26-1.816 1.649l-0.034 0.067v1.021l-0.090 0.001c-0.454-2.193 0.416-3.936 2.856-4.447zM12.166 12.022l0.155 0.627v0.658l-0.257-1.041c-0.038-0.155 0.077-0.213 0.103-0.245zM11.716 18.254l3.833 4.794 2.594-3.244c0.282 0.252 0.418 0.288 1.016 0.596l-0.202-0.685c-0.051-0.174 0.152-0.452 0.274-0.58 0.275-0.151 0.501-0.361 0.667-0.614l0.004-0.007 2.116 1.062-1.969 4.508v1.304h-9.001v-1.305l-1.97-4.507 2.637-1.324zM8.584 19.978l1.851 4.236v1.176h-2.799c-0.014-0.935 0.020-3.872 0.947-5.412z"></path>
<path fill="none" stroke="#ff6b09" style="stroke: var(--color1, #ff6b09)" stroke-linejoin="miter" stroke-linecap="butt" stroke-miterlimit="4" stroke-width="1.0159" d="M30.387 4.945v-4.183h-29.879v30.476h29.879v-4.183"></path>
</symbol>
</defs>
</svg>
