<svg aria-hidden="true" style="position:absolute;width:0;height:0" xmlns="http://www.w3.org/2000/svg" overflow="hidden"><defs><symbol id="icon-finance-1" viewBox="0 0 31 32"><path fill="var(--color1, #ff6b09)" d="M6.947 14.567c0 .227-.344.227-.344 0a8.725 8.725 0 0117.45 0c0 .227-.342.227-.342 0 0-3.257-5.351-3.259-5.351 0 0 .227-.352.227-.352 0 0-3.248-5.359-3.248-5.359 0 0 .227-.352.227-.352 0 0-3.242-5.349-3.265-5.349 0zm5.38-1.265c.093-1.874.388-3.556.816-4.839.342-1.019.775-1.794 1.265-2.228a8.386 8.386 0 00-7.322 6.807c1.267-1.827 4.191-1.681 5.242.259zm5.654-.084c-.095-1.803-.381-3.415-.793-4.645-1.063-3.182-2.656-3.182-3.72 0-.412 1.23-.696 2.842-.793 4.645 1.143-1.942 4.163-1.942 5.306 0zm5.59-.176a8.382 8.382 0 00-7.322-6.807c.493.434.923 1.209 1.265 2.228.429 1.284.723 2.964.816 4.839 1.056-1.95 3.99-2.066 5.242-.26zm-9.388 5.516v-1.771c-.319.212-.57.54-.57.94 0 .389.255.647.57.832zm.344.551c-.612-.28-1.257-.608-1.257-1.382 0-.799.608-1.199 1.257-1.498v2.88zm1.946 2.123v1.792c.324-.214.577-.544.577-.943 0-.394-.26-.659-.577-.849zm-.341-.552c.614.284 1.263.622 1.263 1.401 0 .801-.612 1.201-1.263 1.497V20.68z"/><path fill="var(--color1, #ff6b09)" d="M16.473 14.771c1.409.325 2.857 1.38 2.857 2.955 0 1.35-2.281 1.3-2.281 0 0-.401-.253-.731-.576-.943v2.521c1.304.427 2.861 1.191 2.861 2.776 0 1.578-1.448 2.631-2.861 2.954-.006 1.502-2.286 1.5-2.29-.002-.803-.185-1.501-.56-2.006-1.056-.529-.523-.842-1.18-.842-1.895 0-1.329 2.278-1.329 2.278 0 0 .397.251.725.57.937v-2.519c-1.294-.418-2.859-1.205-2.859-2.776 0-1.578 1.448-2.63 2.859-2.954.006-1.501 2.286-1.499 2.291.002zm-1.946.003v.274c-1.341.266-2.861 1.125-2.861 2.673 0 1.489 1.668 2.157 2.861 2.525v3.328c-.645-.295-1.257-.692-1.257-1.495 0-.877-1.594-.877-1.594 0 0 .62.276 1.193.742 1.65.591.585 1.308.863 2.109 1.022v.276c0 1.056 1.605 1.056 1.605 0v-.274c1.345-.267 2.859-1.126 2.859-2.673 0-1.503-1.665-2.15-2.859-2.527v-3.326c.647.295 1.263.692 1.263 1.499 0 .855 1.592.89 1.592 0 0-1.547-1.512-2.408-2.855-2.675v-.276c0-1.056-1.605-1.056-1.605 0z"/><path fill="none" stroke="var(--color1, #ff6b09)" stroke-width="1.016" d="M30.387 4.945V.762H.508v30.476h29.879v-4.183"/></symbol><symbol id="icon-modern-1" viewBox="0 0 31 32"><path fill="var(--color1, #ff6b09)" d="M24.717 5.25H14.469a1.21 1.21 0 00-1.209 1.21v4.241l-7.613 3.196a.249.249 0 00-.034.441l.001.001.971.581v6.192a1.12 1.12 0 00-.869 1.089v.597c0 .137.111.248.248.248h1.739a.248.248 0 00.248-.248v-.597a1.12 1.12 0 00-.862-1.087l-.008-.002v-5.896l.768.459c-.023.177-.003-.308-.011 2.883 0 1.049 2.687 1.611 5.421 1.643v4.832c0 .667.541 1.208 1.208 1.208H24.716a1.21 1.21 0 001.209-1.209c0 .034-.002-1.023 0-18.573 0-.658-.544-1.21-1.209-1.21zM7.456 22.201v.349H6.213v-.349a.622.622 0 111.243 0zm17.261 3.544H14.469a.712.712 0 01-.713-.71V23.36h11.671v1.676a.718.718 0 01-.711.711zm.711-2.883H13.756v-2.659c1.335-.015 5.425-.309 5.425-1.645-.002-2.005.003-2.818-.007-2.887l2.226-1.334a.249.249 0 00-.03-.44l-.002-.001-7.612-3.195V8.63h11.672v14.231zm-11.92-5.949c-1.376 0-4.023.178-5.173.929.007-2.297-.08-2.148.203-2.343.715-.526 2.758-.894 4.97-.894.965 0 5.176.266 5.176 1.157v2.08c-1.161-.758-3.795-.929-5.176-.929zm.248-10.453c0-.393.32-.713.713-.713h10.248c.393 0 .711.324.711.713v1.675H13.757V6.46zm-.249 4.676l7.218 3.029-1.788 1.07c-.951-.943-4.096-1.126-5.429-1.126-1.335 0-4.48.183-5.429 1.126l-1.788-1.07 7.218-3.029zm-5.172 7.422c0-.401 1.777-1.15 5.173-1.15 3.398 0 5.176.749 5.176 1.15s-1.778 1.15-5.176 1.15c-3.397 0-5.173-.749-5.173-1.15z"/><path fill="var(--color1, #ff6b09)" d="M19.593 23.732a.821.821 0 000 1.64.821.821 0 000-1.64zm0 1.145h-.012a.325.325 0 110-.65h.014-.001a.325.325 0 01-.001.65h-.001zm.945-18.184h-1.892v.496h1.892v-.496z"/><path fill="none" stroke="var(--color1, #ff6b09)" stroke-width="1.016" d="M30.387 4.945V.762H.508v30.476h29.879v-4.183"/></symbol><symbol id="icon-adapt-1" viewBox="0 0 31 32"><path fill="var(--color1, #ff6b09)" d="M7.046 26.005h17.006c.084-1.939-.054-5.157-1.247-6.689l-.043-.055-2.606-1.308a2.512 2.512 0 00.1-.581.907.907 0 00-.07-.35l.002.006c-.43-1.029-1.339-1.57-1.84-1.801.152-.307.25-.637.298-.974a.838.838 0 00.584-.598l.001-.006.304-1.235a.834.834 0 00-.281-.847l-.002-.001c.857-1.947-.579-3.784-.657-3.881-1.556-1.682-3.521-1.367-3.624-1.349-2.836.593-3.93 2.767-3.312 5.316a.836.836 0 00-.192.762l.305 1.237c.074.297.3.521.582.601.09.628.352 1.183.735 1.63l-.004-.004v.979c-4.069 2.084-1.491.754-4.752 2.404-.007.03-1.53 1.65-1.304 6.45l.014.293zm16.415-.615h-2.799v-1.175l1.851-4.238c.927 1.539.962 4.478.948 5.413zm-3.82-7.983c-.108 1.24-.789.866-1.209 1.821-.33-.363-.43-.799-.34-1.265.16-.856-.363-1.11-.234-2.01l.02-.021v-.003a6.52 6.52 0 00.144-.174c1.107.483 1.641 1.381 1.619 1.651zm-5.94-.975a3.128 3.128 0 001.805.568c.646 0 1.247-.194 1.747-.528l-.012.007c.071.707.347.849.249 1.369a2.377 2.377 0 00-.034.285l-1.906 2.149-2.437-2.747.588-.307v-.796zm-.766-2.629V10.52c.297-.549.701-.946 1.204-1.185 1.346.762 2.895 1.898 3.934 3.043-.001 1.457.005 1.46-.005 1.58l-.001.008a2.57 2.57 0 01-2.564 2.419 2.578 2.578 0 01-2.569-2.566v-.016.001zm-.38 4.03l2.994 3.376 2.01-2.266a2 2 0 00.184.378l-2.194 2.744-3.273-4.092.278-.14zm6.13-4.526v-.951l.229-.262c.013.482.065-.087-.229 1.213zm-3.598-6.365c.122.008 1.755-.249 3.047 1.145.051.064 1.102 1.418.68 2.9-.145-.66-.396-1.505-.795-1.908l-.435.434c.393.398.651 1.611.75 2.239-1.803-1.887-4.13-3.082-4.162-3.102-.117.073-1.101.26-1.816 1.649l-.034.067v1.021l-.09.001c-.454-2.193.416-3.936 2.856-4.447zm-2.921 5.08l.155.627v.658l-.257-1.041c-.038-.155.077-.213.103-.245zm-.45 6.232l3.833 4.794 2.594-3.244c.282.252.418.288 1.016.596l-.202-.685c-.051-.174.152-.452.274-.58.275-.151.501-.361.667-.614l.004-.007 2.116 1.062-1.969 4.508v1.304h-9.001v-1.305l-1.97-4.507 2.637-1.324zm-3.132 1.724l1.851 4.236v1.176H7.636c-.014-.935.02-3.872.947-5.412z"/><path fill="none" stroke="var(--color1, #ff6b09)" stroke-width="1.016" d="M30.387 4.945V.762H.508v30.476h29.879v-4.183"/></symbol></defs></svg>