<svg aria-hidden="true" style="position: absolute; width: 0; height: 0; overflow: hidden;" version="1.1" xmlns="http://www.w3.org/2000/svg" xmlns:xlink="http://www.w3.org/1999/xlink">
<defs>
<symbol id="logo-header-mob" viewBox="0 0 88 32">
<path fill="#111518" style="fill: var(--color1, #111518)" d="M12.344 4.847v12.975h-3.67v-5.060h-5.004v5.060h-3.67v-12.975h3.67v4.875h5.004v-4.875h3.67zM25.777 12.819c0 0.024-0.019 0.314-0.055 0.871h-7.303c0.148 0.519 0.433 0.92 0.852 1.205 0.433 0.271 0.971 0.408 1.613 0.408 0.481 0 0.896-0.068 1.241-0.204 0.359-0.136 0.717-0.359 1.075-0.668l1.854 1.928c-0.975 1.087-2.403 1.631-4.281 1.631-1.174 0-2.207-0.222-3.095-0.668-0.89-0.445-1.582-1.063-2.077-1.854-0.482-0.79-0.723-1.686-0.723-2.687 0-0.989 0.235-1.873 0.704-2.65 0.485-0.789 1.158-1.42 1.958-1.842l0.027-0.013c0.84-0.445 1.785-0.668 2.836-0.668 1.001 0 1.909 0.21 2.726 0.63 0.814 0.408 1.457 1.007 1.927 1.799 0.482 0.778 0.723 1.705 0.723 2.781zM20.42 10.112c-0.544 0-1.001 0.154-1.372 0.463-0.359 0.309-0.587 0.728-0.686 1.26h4.116c-0.099-0.531-0.334-0.951-0.705-1.26-0.359-0.309-0.81-0.463-1.353-0.463zM28.142 4.070h3.521v13.753h-3.521v-13.753zM34.694 4.070h3.522v13.753h-3.522v-13.753zM3.328 29.8h-1.854l-0.353 0.855h-0.947l1.779-3.992h0.913l1.785 3.992h-0.97l-0.353-0.855zM3.037 29.098l-0.632-1.528-0.633 1.528h1.266zM10.358 29.902v1.58h-0.855v-0.828h-2.817v0.828h-0.856l0.007-1.58h0.159c0.239-0.008 0.408-0.183 0.508-0.525s0.16-0.831 0.183-1.465l0.045-1.249h3.068v3.241h0.559zM7.5 27.998c-0.018 0.474-0.058 0.874-0.119 1.197-0.061 0.32-0.154 0.555-0.279 0.706h1.785v-2.486h-1.368l-0.018 0.583zM13.895 30.723c-0.407 0-0.776-0.088-1.107-0.263-0.322-0.175-0.585-0.425-0.771-0.726l-0.005-0.009c-0.176-0.297-0.279-0.654-0.279-1.036 0-0.011 0-0.022 0-0.033l-0 0.002c0-0.395 0.094-0.749 0.279-1.060 0.191-0.316 0.449-0.561 0.776-0.736 0.331-0.179 0.702-0.268 1.112-0.268 0.346 0 0.658 0.061 0.936 0.183 0.281 0.121 0.518 0.299 0.704 0.521l0.002 0.003-0.593 0.547c-0.236-0.287-0.59-0.468-0.987-0.468-0.006 0-0.012 0-0.018 0h0.001c-0.246 0-0.467 0.055-0.661 0.166-0.193 0.106-0.348 0.26-0.453 0.446l-0.003 0.006c-0.101 0.185-0.16 0.405-0.16 0.638 0 0.008 0 0.017 0 0.025l-0-0.001c0 0.246 0.053 0.467 0.16 0.661 0.11 0.193 0.262 0.345 0.456 0.456 0.194 0.107 0.415 0.16 0.662 0.16 0.398 0 0.734-0.158 1.004-0.474l0.593 0.548c-0.19 0.232-0.426 0.408-0.707 0.53-0.281 0.122-0.596 0.183-0.941 0.183zM18.717 29.047h-0.638v1.608h-0.918v-3.992h0.918v1.614h0.662l1.048-1.614h0.975l-1.306 1.928 1.346 2.065h-1.048l-1.039-1.608zM22.264 26.663h0.918v2.601l1.905-2.601h0.867v3.992h-0.913v-2.594l-1.905 2.594h-0.873v-3.992zM27.975 26.663h0.918v2.601l1.906-2.601h0.866v3.992h-0.913v-2.594l-1.905 2.594h-0.872v-3.992zM29.817 26.407c-0.73 0-1.099-0.291-1.107-0.873h0.633c0.007 0.277 0.166 0.416 0.473 0.416 0.151 0 0.268-0.033 0.348-0.103 0.079-0.072 0.121-0.177 0.126-0.313h0.632c-0.003 0.285-0.097 0.502-0.279 0.65s-0.458 0.223-0.828 0.223zM39.030 29.8h-1.854l-0.353 0.855h-0.947l1.78-3.992h0.913l1.784 3.992h-0.969l-0.353-0.855zM38.74 29.098l-0.633-1.528-0.633 1.528h1.267zM45.571 26.663v3.992h-0.924v-1.636h-1.814v1.636h-0.924v-3.992h0.924v1.575h1.814v-1.575h0.924zM50.41 27.415h-1.899l0.006 3.24h-0.918v-3.992h2.817l-0.006 0.753zM55.069 26.663v3.992h-0.913v-3.24h-1.368l-0.029 0.833c-0.020 0.566-0.065 1.026-0.138 1.379-0.072 0.351-0.193 0.621-0.364 0.811-0.168 0.186-0.403 0.279-0.707 0.279-0.126 0-0.278-0.021-0.457-0.063l0.057-0.781c0.050 0.015 0.105 0.022 0.166 0.022 0.221 0 0.375-0.128 0.462-0.386 0.087-0.263 0.142-0.672 0.166-1.227l0.056-1.62h3.068zM57.092 26.663h0.918v2.601l1.905-2.601h0.867v3.992h-0.913v-2.594l-1.906 2.593h-0.873v-3.992zM62.803 26.663h0.918v2.601l1.906-2.601h0.866v3.992h-0.913v-2.594l-1.905 2.594h-0.872v-3.992zM64.646 26.407c-0.73 0-1.099-0.291-1.107-0.873h0.633c0.007 0.277 0.166 0.416 0.473 0.416 0.151 0 0.267-0.033 0.348-0.103 0.079-0.072 0.121-0.177 0.126-0.313h0.632c-0.003 0.285-0.097 0.502-0.279 0.65s-0.458 0.223-0.828 0.223zM70.401 30.723c-0.407 0-0.776-0.088-1.107-0.263-0.322-0.175-0.585-0.425-0.771-0.726l-0.005-0.009c-0.176-0.297-0.279-0.654-0.279-1.035 0-0.011 0-0.022 0-0.033l-0 0.002c-0-0.014-0.001-0.031-0.001-0.047 0-0.755 0.423-1.411 1.045-1.744l0.011-0.005c0.331-0.179 0.702-0.268 1.112-0.268 0.346 0 0.659 0.061 0.936 0.183 0.281 0.121 0.518 0.299 0.704 0.521l0.002 0.003-0.593 0.547c-0.236-0.287-0.59-0.468-0.987-0.468-0.006 0-0.012 0-0.018 0h0.001c-0.246 0-0.467 0.055-0.661 0.166-0.193 0.106-0.348 0.26-0.453 0.446l-0.003 0.006c-0.101 0.185-0.16 0.405-0.16 0.639 0 0.008 0 0.017 0 0.025l-0-0.001c0 0.246 0.053 0.467 0.16 0.661 0.11 0.193 0.262 0.345 0.456 0.456 0.194 0.107 0.415 0.16 0.662 0.16 0.399 0 0.734-0.158 1.004-0.474l0.593 0.548c-0.19 0.232-0.426 0.408-0.707 0.53-0.281 0.122-0.596 0.183-0.941 0.183zM75.224 29.047h-0.64v1.608h-0.917v-3.992h0.918v1.614h0.662l1.048-1.614h0.975l-1.305 1.928 1.346 2.065h-1.050l-1.037-1.608zM78.771 26.663h0.918v2.601l1.905-2.601h0.867v3.992h-0.913v-2.594l-1.905 2.594h-0.873v-3.992zM84.481 26.663h0.918v2.601l1.906-2.601h0.866v3.992h-0.913v-2.594l-1.905 2.594h-0.872v-3.992zM86.324 26.407c-0.73 0-1.099-0.291-1.107-0.873h0.633c0.008 0.277 0.166 0.416 0.473 0.416 0.152 0 0.268-0.033 0.348-0.103 0.079-0.072 0.121-0.177 0.126-0.313h0.632c-0.003 0.285-0.097 0.502-0.279 0.65s-0.458 0.223-0.828 0.223zM73.153 14.987v2.836h-10.417v-12.975h10.176v2.836h-6.543v2.187h5.764v2.743h-5.764v2.372h6.784zM88.276 4.847v12.975h-3.021l-5.727-6.914v6.914h-3.597v-12.975h3.022l5.727 6.914v-6.914h3.596z"></path>
<path fill="#ff6b09" style="fill: var(--color2, #ff6b09)" d="M57.545 11.090c-0.189-0.424-0.45-0.842-0.832-1.324-0.964-1.214-1.258-3.915-1.261-3.942-0.015-0.13-0.104-0.236-0.224-0.275l-0.002-0.001c-0.030-0.010-0.064-0.015-0.1-0.015-0.098 0-0.186 0.042-0.246 0.11l-0 0c-1.15 1.287-0.666 3.273-0.405 4.066 0.072 0.217 0.15 0.473 0.206 0.733 0.425 2.097-0.396 3.046-0.588 3.238-0.188 0.052-0.314 0.025-0.431-0.1-0.405-0.445-0.54-1.899-0.35-3.796 0.040-0.385 0.030-0.732-0.026-1.056-0.399-2.329-1.865-3.825-2.238-4.348-1.026-1.517-1.131-4.042-1.134-4.064-0.008-0.174-0.151-0.312-0.326-0.312-0.069 0-0.132 0.021-0.185 0.057l0.001-0.001c-1.711 1.163-1.565 3.966-1.326 5.532 0.055 0.363 0.163 0.732 0.35 1.198 0.663 1.67-0.13 3.825-0.137 3.843-0.007 0.020-0.013 0.035-0.017 0.055-0.102 0.532-0.271 0.85-0.461 0.85-0.022-0.001-0.043-0.005-0.063-0.011l0.002 0c-0.232-0.047-0.353-0.294-0.356-0.508-0.013-2.764-2.787-3.694-2.816-3.704-0.030-0.010-0.064-0.016-0.1-0.016-0.098 0-0.186 0.044-0.246 0.112l-0 0c-0.050 0.056-0.081 0.131-0.081 0.212 0 0.053 0.013 0.102 0.035 0.146l-0.001-0.002c0.033 0.068 0.138 0.366 0.066 1.419-0.068 1.017-0.251 1.964-0.537 2.866l0.023-0.086c-0.353 1.151-0.557 2.473-0.557 3.844 0 0.156 0.003 0.311 0.008 0.466l-0.001-0.023c0.508 5.519 8.445 6.486 13.155 3.377 0.516-0.34 0.938-0.728 1.248-1.156 1.738-2.398 0.716-5.655-0.045-7.385zM45.473 16.362c0 0.005 0.001 0.012 0.001 0.018 0 0.174-0.137 0.315-0.309 0.323l-0.001 0h-0.019c-0.001 0-0.001 0-0.002 0-0.172 0-0.313-0.134-0.325-0.304l-0-0.001c-0.030-0.474-0.022-0.97 0.013-1.507 0.015-0.17 0.156-0.302 0.329-0.302 0.007 0 0.015 0 0.022 0.001l-0.001-0c0.17 0.012 0.304 0.153 0.304 0.326 0 0.007-0 0.014-0.001 0.022l0-0.001c-0.020 0.242-0.031 0.525-0.031 0.81 0 0.217 0.007 0.432 0.020 0.645l-0.001-0.029zM45.632 13.491c-0.020 0.162-0.157 0.286-0.322 0.286-0 0-0.001 0-0.001 0h0c-0.013 0-0.026 0-0.042-0.003-0.162-0.021-0.287-0.158-0.287-0.324 0-0.013 0.001-0.025 0.002-0.037l-0 0.002 0.157-1.251c0.023-0.161 0.161-0.284 0.327-0.284 0.014 0 0.028 0.001 0.041 0.003l-0.002-0c0.18 0.022 0.307 0.184 0.284 0.363l-0.157 1.247zM55.335 4.434c-0.157-0.024-0.276-0.159-0.276-0.321 0-0.017 0.001-0.034 0.004-0.051l-0 0.002c0.021-0.132 0.139-0.806 0.459-1.144 0.060-0.063 0.145-0.103 0.238-0.103 0.086 0 0.165 0.033 0.223 0.088l-0-0c0.132 0.122 0.139 0.328 0.015 0.459-0.136 0.143-0.252 0.554-0.29 0.8-0.026 0.156-0.16 0.274-0.322 0.274-0.018 0-0.035-0.001-0.052-0.004l0.002 0zM43.423 6.047c-0.063-0.241-0.217-0.638-0.367-0.768-0.068-0.059-0.111-0.146-0.111-0.243 0-0.082 0.031-0.157 0.081-0.214l-0 0c0.060-0.068 0.148-0.111 0.246-0.111 0.083 0 0.158 0.031 0.216 0.081l-0-0c0.352 0.306 0.536 0.966 0.569 1.095 0.006 0.024 0.010 0.051 0.010 0.079 0 0.151-0.103 0.278-0.243 0.314l-0.002 0c-0.024 0.006-0.052 0.010-0.081 0.010-0.151 0-0.278-0.102-0.316-0.241l-0.001-0.002z"></path>
</symbol>
<symbol id="logo-mob" viewBox="0 0 88 32">
<path fill="#fff" style="fill: var(--color3, #fff)" d="M12.344 4.847v12.975h-3.67v-5.060h-5.004v5.060h-3.67v-12.975h3.67v4.875h5.004v-4.875h3.67zM25.777 12.819c0 0.024-0.019 0.314-0.055 0.871h-7.303c0.148 0.519 0.433 0.92 0.852 1.205 0.433 0.271 0.971 0.408 1.613 0.408 0.481 0 0.896-0.068 1.241-0.204 0.359-0.136 0.717-0.359 1.075-0.668l1.854 1.928c-0.975 1.087-2.403 1.631-4.281 1.631-1.174 0-2.207-0.222-3.095-0.668-0.89-0.445-1.582-1.063-2.077-1.854-0.482-0.79-0.723-1.686-0.723-2.687 0-0.989 0.235-1.873 0.704-2.65 0.485-0.789 1.158-1.42 1.958-1.842l0.027-0.013c0.84-0.445 1.785-0.668 2.836-0.668 1.001 0 1.909 0.21 2.726 0.63 0.814 0.408 1.457 1.007 1.927 1.799 0.482 0.778 0.723 1.705 0.723 2.781zM20.42 10.112c-0.544 0-1.001 0.154-1.372 0.463-0.359 0.309-0.587 0.728-0.686 1.26h4.116c-0.099-0.531-0.334-0.951-0.705-1.26-0.359-0.309-0.81-0.463-1.353-0.463zM28.142 4.070h3.521v13.753h-3.521v-13.753zM34.694 4.070h3.522v13.753h-3.522v-13.753zM3.328 29.8h-1.854l-0.353 0.855h-0.947l1.779-3.992h0.913l1.785 3.992h-0.97l-0.353-0.855zM3.037 29.098l-0.632-1.528-0.633 1.528h1.266zM10.358 29.902v1.58h-0.855v-0.828h-2.817v0.828h-0.856l0.007-1.58h0.159c0.239-0.008 0.408-0.183 0.508-0.525s0.16-0.831 0.183-1.465l0.045-1.249h3.068v3.241h0.559zM7.5 27.998c-0.018 0.474-0.058 0.874-0.119 1.197-0.061 0.32-0.154 0.555-0.279 0.706h1.785v-2.486h-1.368l-0.018 0.583zM13.895 30.723c-0.407 0-0.776-0.088-1.107-0.263-0.322-0.175-0.585-0.425-0.771-0.726l-0.005-0.009c-0.176-0.297-0.279-0.654-0.279-1.036 0-0.011 0-0.022 0-0.033l-0 0.002c0-0.395 0.094-0.749 0.279-1.060 0.191-0.316 0.449-0.561 0.776-0.736 0.331-0.179 0.702-0.268 1.112-0.268 0.346 0 0.658 0.061 0.936 0.183 0.281 0.121 0.518 0.299 0.704 0.521l0.002 0.003-0.593 0.547c-0.236-0.287-0.59-0.468-0.987-0.468-0.006 0-0.012 0-0.018 0h0.001c-0.246 0-0.467 0.055-0.661 0.166-0.193 0.106-0.348 0.26-0.453 0.446l-0.003 0.006c-0.101 0.185-0.16 0.405-0.16 0.638 0 0.008 0 0.017 0 0.025l-0-0.001c0 0.246 0.053 0.467 0.16 0.661 0.11 0.193 0.262 0.345 0.456 0.456 0.194 0.107 0.415 0.16 0.662 0.16 0.398 0 0.734-0.158 1.004-0.474l0.593 0.548c-0.19 0.232-0.426 0.408-0.707 0.53-0.281 0.122-0.596 0.183-0.941 0.183zM18.717 29.047h-0.638v1.608h-0.918v-3.992h0.918v1.614h0.662l1.048-1.614h0.975l-1.306 1.928 1.346 2.065h-1.048l-1.039-1.608zM22.264 26.663h0.918v2.601l1.905-2.601h0.867v3.992h-0.913v-2.594l-1.905 2.594h-0.873v-3.992zM27.975 26.663h0.918v2.601l1.906-2.601h0.866v3.992h-0.913v-2.594l-1.905 2.594h-0.872v-3.992zM29.817 26.407c-0.73 0-1.099-0.291-1.107-0.873h0.633c0.007 0.277 0.166 0.416 0.473 0.416 0.151 0 0.268-0.033 0.348-0.103 0.079-0.072 0.121-0.177 0.126-0.313h0.632c-0.003 0.285-0.097 0.502-0.279 0.65s-0.458 0.223-0.828 0.223zM39.030 29.8h-1.854l-0.353 0.855h-0.947l1.78-3.992h0.913l1.784 3.992h-0.969l-0.353-0.855zM38.74 29.098l-0.633-1.528-0.633 1.528h1.267zM45.571 26.663v3.992h-0.924v-1.636h-1.814v1.636h-0.924v-3.992h0.924v1.575h1.814v-1.575h0.924zM50.41 27.415h-1.899l0.006 3.24h-0.918v-3.992h2.817l-0.006 0.753zM55.069 26.663v3.992h-0.913v-3.24h-1.368l-0.029 0.833c-0.020 0.566-0.065 1.026-0.138 1.379-0.072 0.351-0.193 0.621-0.364 0.811-0.168 0.186-0.403 0.279-0.707 0.279-0.126 0-0.278-0.021-0.457-0.063l0.057-0.781c0.050 0.015 0.105 0.022 0.166 0.022 0.221 0 0.375-0.128 0.462-0.386 0.087-0.263 0.142-0.672 0.166-1.227l0.056-1.62h3.068zM57.092 26.663h0.918v2.601l1.905-2.601h0.867v3.992h-0.913v-2.594l-1.906 2.593h-0.873v-3.992zM62.803 26.663h0.918v2.601l1.906-2.601h0.866v3.992h-0.913v-2.594l-1.905 2.594h-0.872v-3.992zM64.646 26.407c-0.73 0-1.099-0.291-1.107-0.873h0.633c0.007 0.277 0.166 0.416 0.473 0.416 0.151 0 0.267-0.033 0.348-0.103 0.079-0.072 0.121-0.177 0.126-0.313h0.632c-0.003 0.285-0.097 0.502-0.279 0.65s-0.458 0.223-0.828 0.223zM70.401 30.723c-0.407 0-0.776-0.088-1.107-0.263-0.322-0.175-0.585-0.425-0.771-0.726l-0.005-0.009c-0.176-0.297-0.279-0.654-0.279-1.035 0-0.011 0-0.022 0-0.033l-0 0.002c-0-0.014-0.001-0.031-0.001-0.047 0-0.755 0.423-1.411 1.045-1.744l0.011-0.005c0.331-0.179 0.702-0.268 1.112-0.268 0.346 0 0.659 0.061 0.936 0.183 0.281 0.121 0.518 0.299 0.704 0.521l0.002 0.003-0.593 0.547c-0.236-0.287-0.59-0.468-0.987-0.468-0.006 0-0.012 0-0.018 0h0.001c-0.246 0-0.467 0.055-0.661 0.166-0.193 0.106-0.348 0.26-0.453 0.446l-0.003 0.006c-0.101 0.185-0.16 0.405-0.16 0.639 0 0.008 0 0.017 0 0.025l-0-0.001c0 0.246 0.053 0.467 0.16 0.661 0.11 0.193 0.262 0.345 0.456 0.456 0.194 0.107 0.415 0.16 0.662 0.16 0.399 0 0.734-0.158 1.004-0.474l0.593 0.548c-0.19 0.232-0.426 0.408-0.707 0.53-0.281 0.122-0.596 0.183-0.941 0.183zM75.224 29.047h-0.64v1.608h-0.917v-3.992h0.918v1.614h0.662l1.048-1.614h0.975l-1.305 1.928 1.346 2.065h-1.050l-1.037-1.608zM78.771 26.663h0.918v2.601l1.905-2.601h0.867v3.992h-0.913v-2.594l-1.905 2.594h-0.873v-3.992zM84.481 26.663h0.918v2.601l1.906-2.601h0.866v3.992h-0.913v-2.594l-1.905 2.594h-0.872v-3.992zM86.324 26.407c-0.73 0-1.099-0.291-1.107-0.873h0.633c0.008 0.277 0.166 0.416 0.473 0.416 0.152 0 0.268-0.033 0.348-0.103 0.079-0.072 0.121-0.177 0.126-0.313h0.632c-0.003 0.285-0.097 0.502-0.279 0.65s-0.458 0.223-0.828 0.223zM73.153 14.987v2.836h-10.417v-12.975h10.176v2.836h-6.543v2.187h5.764v2.743h-5.764v2.372h6.784zM88.276 4.847v12.975h-3.021l-5.727-6.914v6.914h-3.597v-12.975h3.022l5.727 6.914v-6.914h3.596z"></path>
<path fill="#ff6b09" style="fill: var(--color2, #ff6b09)" d="M57.545 11.090c-0.189-0.424-0.45-0.842-0.832-1.324-0.964-1.214-1.258-3.915-1.261-3.942-0.015-0.13-0.104-0.236-0.224-0.275l-0.002-0.001c-0.030-0.010-0.064-0.015-0.1-0.015-0.098 0-0.186 0.042-0.246 0.11l-0 0c-1.15 1.287-0.666 3.273-0.405 4.066 0.072 0.217 0.15 0.473 0.206 0.733 0.425 2.097-0.396 3.046-0.588 3.238-0.188 0.052-0.314 0.025-0.431-0.1-0.405-0.445-0.54-1.899-0.35-3.796 0.040-0.385 0.030-0.732-0.026-1.056-0.399-2.329-1.865-3.825-2.238-4.348-1.026-1.517-1.131-4.042-1.134-4.064-0.008-0.174-0.151-0.312-0.326-0.312-0.069 0-0.132 0.021-0.185 0.057l0.001-0.001c-1.711 1.163-1.565 3.966-1.326 5.532 0.055 0.363 0.163 0.732 0.35 1.198 0.663 1.67-0.13 3.825-0.137 3.843-0.007 0.020-0.013 0.035-0.017 0.055-0.102 0.532-0.271 0.85-0.461 0.85-0.022-0.001-0.043-0.005-0.063-0.011l0.002 0c-0.232-0.047-0.353-0.294-0.356-0.508-0.013-2.764-2.787-3.694-2.816-3.704-0.030-0.010-0.064-0.016-0.1-0.016-0.098 0-0.186 0.044-0.246 0.112l-0 0c-0.050 0.056-0.081 0.131-0.081 0.212 0 0.053 0.013 0.102 0.035 0.146l-0.001-0.002c0.033 0.068 0.138 0.366 0.066 1.419-0.068 1.017-0.251 1.964-0.537 2.866l0.023-0.086c-0.353 1.151-0.557 2.473-0.557 3.844 0 0.156 0.003 0.311 0.008 0.466l-0.001-0.023c0.508 5.519 8.445 6.486 13.155 3.377 0.516-0.34 0.938-0.728 1.248-1.156 1.738-2.398 0.716-5.655-0.045-7.385zM45.473 16.362c0 0.005 0.001 0.012 0.001 0.018 0 0.174-0.137 0.315-0.309 0.323l-0.001 0h-0.019c-0.001 0-0.001 0-0.002 0-0.172 0-0.313-0.134-0.325-0.304l-0-0.001c-0.030-0.474-0.022-0.97 0.013-1.507 0.015-0.17 0.156-0.302 0.329-0.302 0.007 0 0.015 0 0.022 0.001l-0.001-0c0.17 0.012 0.304 0.153 0.304 0.326 0 0.007-0 0.014-0.001 0.022l0-0.001c-0.020 0.242-0.031 0.525-0.031 0.81 0 0.217 0.007 0.432 0.020 0.645l-0.001-0.029zM45.632 13.491c-0.020 0.162-0.157 0.286-0.322 0.286-0 0-0.001 0-0.001 0h0c-0.013 0-0.026 0-0.042-0.003-0.162-0.021-0.287-0.158-0.287-0.324 0-0.013 0.001-0.025 0.002-0.037l-0 0.002 0.157-1.251c0.023-0.161 0.161-0.284 0.327-0.284 0.014 0 0.028 0.001 0.041 0.003l-0.002-0c0.18 0.022 0.307 0.184 0.284 0.363l-0.157 1.247zM55.335 4.434c-0.157-0.024-0.276-0.159-0.276-0.321 0-0.017 0.001-0.034 0.004-0.051l-0 0.002c0.021-0.132 0.139-0.806 0.459-1.144 0.060-0.063 0.145-0.103 0.238-0.103 0.086 0 0.165 0.033 0.223 0.088l-0-0c0.132 0.122 0.139 0.328 0.015 0.459-0.136 0.143-0.252 0.554-0.29 0.8-0.026 0.156-0.16 0.274-0.322 0.274-0.018 0-0.035-0.001-0.052-0.004l0.002 0zM43.423 6.047c-0.063-0.241-0.217-0.638-0.367-0.768-0.068-0.059-0.111-0.146-0.111-0.243 0-0.082 0.031-0.157 0.081-0.214l-0 0c0.060-0.068 0.148-0.111 0.246-0.111 0.083 0 0.158 0.031 0.216 0.081l-0-0c0.352 0.306 0.536 0.966 0.569 1.095 0.006 0.024 0.010 0.051 0.010 0.079 0 0.151-0.103 0.278-0.243 0.314l-0.002 0c-0.024 0.006-0.052 0.010-0.081 0.010-0.151 0-0.278-0.102-0.316-0.241l-0.001-0.002z"></path>
</symbol>
<symbol id="menu-mob" viewBox="0 0 48 32">
<path stroke-linejoin="miter" stroke-linecap="butt" stroke-miterlimit="4" stroke-width="4.5714" d="M0 2.286h46.857M0 16h46.857M0 29.714h46.857"></path>
</symbol>
<symbol id="close-mob" viewBox="0 0 32 32">
<path fill="none" stroke="#fff" style="stroke: var(--color3, #fff)" stroke-linejoin="miter" stroke-linecap="butt" stroke-miterlimit="4" stroke-width="3.7647" d="M1.882 29.169l27.287-27.287M29.169 29.169l-27.287-27.287"></path>
</symbol>
</defs>
</svg>
