<svg aria-hidden="true" style="position: absolute; width: 0; height: 0; overflow: hidden;" version="1.1" xmlns="http://www.w3.org/2000/svg" xmlns:xlink="http://www.w3.org/1999/xlink">
<defs>
<symbol id="icon-logo" viewBox="0 0 24 32">
<path fill="#ff6b09" style="fill: var(--color1, #ff6b09)" d="M22.611 16.116c-0.275-0.617-0.655-1.224-1.21-1.926-1.4-1.761-1.827-5.689-1.831-5.726-0.019-0.188-0.152-0.344-0.327-0.4-0.18-0.057-0.375-0.005-0.503 0.137-1.67 1.87-0.968 4.756-0.588 5.91 0.104 0.316 0.218 0.688 0.299 1.064 0.617 3.047-0.574 4.427-0.854 4.704-0.27 0.075-0.455 0.038-0.626-0.146-0.588-0.645-0.783-2.76-0.508-5.514 0.057-0.56 0.043-1.064-0.038-1.535-0.58-3.386-2.708-5.558-3.25-6.32-1.49-2.204-1.642-5.872-1.646-5.905-0.005-0.174-0.104-0.33-0.261-0.405-0.152-0.075-0.337-0.066-0.479 0.033-2.486 1.691-2.273 5.764-1.926 8.039 0.081 0.527 0.237 1.064 0.508 1.742 0.963 2.425-0.19 5.557-0.199 5.585s-0.019 0.052-0.024 0.080c-0.147 0.772-0.394 1.234-0.669 1.234-0.028 0-0.057-0.005-0.090-0.014-0.337-0.071-0.512-0.428-0.517-0.739-0.019-4.017-4.047-5.368-4.090-5.383-0.18-0.056-0.38-0.005-0.503 0.141-0.128 0.146-0.152 0.348-0.066 0.518 0.047 0.099 0.199 0.532 0.095 2.063-0.090 1.375-0.342 2.736-0.745 4.040-0.958 3.127-0.807 6.089-0.797 6.23 0.737 8.020 12.262 9.425 19.102 4.907 0.75-0.494 1.362-1.060 1.812-1.681 2.524-3.485 1.039-8.218-0.066-10.732zM5.080 23.778c0.014 0.259-0.185 0.48-0.446 0.494h-0.028c-0.251 0-0.46-0.193-0.474-0.443-0.043-0.688-0.033-1.408 0.019-2.19 0.019-0.259 0.247-0.452 0.508-0.438 0.261 0.019 0.46 0.245 0.441 0.504-0.052 0.744-0.062 1.422-0.019 2.072zM5.312 19.605c-0.028 0.24-0.232 0.414-0.47 0.414-0.019 0-0.038 0-0.062-0.005-0.256-0.033-0.441-0.264-0.413-0.523l0.228-1.818c0.033-0.254 0.266-0.438 0.531-0.41 0.261 0.033 0.446 0.268 0.413 0.528l-0.228 1.813z"></path>
<path fill="#ff6b09" style="fill: var(--color1, #ff6b09)" d="M19.321 6.438c-0.259-0.040-0.436-0.28-0.396-0.536 0.030-0.191 0.201-1.17 0.666-1.662 0.179-0.19 0.479-0.2 0.671-0.021s0.201 0.475 0.021 0.665c-0.197 0.208-0.365 0.805-0.421 1.162-0.040 0.254-0.279 0.432-0.541 0.393z"></path>
<path fill="#ff6b09" style="fill: var(--color1, #ff6b09)" d="M2.071 8.782c-0.091-0.35-0.316-0.927-0.533-1.115-0.197-0.171-0.217-0.469-0.044-0.664s0.471-0.216 0.669-0.044c0.511 0.445 0.778 1.402 0.826 1.589 0.065 0.252-0.088 0.508-0.341 0.572-0.259 0.065-0.513-0.091-0.577-0.338z"></path>
</symbol>
<symbol id="icon-tel" viewBox="0 0 32 32">
<path fill="#ff6b09" style="fill: var(--color1, #ff6b09)" d="M4.657 0.002c-0.515 0.024-1.021 0.243-1.392 0.651l-2.595 2.852c0.004-0.008-0.010-0.007-0.084 0.097-0.039 0.054-0.070 0.113-0.090 0.176-1.056 3.364-0.348 7.064 1.376 10.584s4.475 6.888 7.633 9.651c3.158 2.764 6.721 4.926 10.119 5.999s6.692 1.058 9.133-0.713c0.026-0.020 0.051-0.041 0.075-0.065 0.064-0.064 0.066-0.072 0.056-0.062l0.010-0.012 2.582-2.84c0.742-0.816 0.682-2.098-0.134-2.84l-6.126-5.571c-0.816-0.742-2.098-0.683-2.84 0.133l-2.772 3.048c-2.25-0.652-4.173-1.756-6.023-3.439s-3.132-3.494-3.993-5.673l2.771-3.048c0.742-0.816 0.683-2.098-0.133-2.84l-6.126-5.571c-0.408-0.371-0.933-0.542-1.448-0.518l-0.001 0zM4.715 1.253c0.19-0.008 0.383 0.057 0.541 0.201l6.126 5.571c0.316 0.287 0.337 0.745 0.050 1.061l-3.063 3.366c-0.077 0.085-0.129 0.19-0.151 0.302s-0.013 0.229 0.027 0.337c0.93 2.537 2.429 4.618 4.493 6.495s4.275 3.174 6.889 3.859c0.111 0.029 0.228 0.027 0.339-0.005s0.21-0.095 0.287-0.18l3.064-3.367c0.287-0.315 0.744-0.336 1.060-0.049l6.127 5.571c0.316 0.287 0.336 0.744 0.049 1.060l-2.561 2.815c-2.003 1.438-4.826 1.519-7.986 0.521-3.173-1.002-6.617-3.076-9.666-5.744s-5.702-5.926-7.332-9.254c-1.614-3.294-2.199-6.624-1.312-9.559l2.502-2.75c0.143-0.158 0.33-0.242 0.52-0.251l0 0z"></path>
</symbol>
</defs>
</svg>
